HIERARCHY
ROOT Hips
{
	OFFSET 0.000000 0.000000 0.000000
	CHANNELS 6 Xposition Yposition Zposition Yrotation Xrotation Zrotation
	JOINT Chest
	{
		OFFSET 0.000000 -0.009281 11.569106
		CHANNELS 3 Yrotation Xrotation Zrotation
		JOINT Chest2
		{
			OFFSET -0.000000 0.016865 9.269641
			CHANNELS 3 Yrotation Xrotation Zrotation
			JOINT Chest3
			{
				OFFSET -0.000000 0.000001 8.374491
				CHANNELS 3 Yrotation Xrotation Zrotation
				JOINT Chest4
				{
					OFFSET -0.000000 0.000001 8.374493
					CHANNELS 3 Yrotation Xrotation Zrotation
					JOINT Neck
					{
						OFFSET -0.000000 0.000002 12.152554
						CHANNELS 3 Yrotation Xrotation Zrotation
						JOINT Head
						{
							OFFSET -0.000000 0.040101 7.802319
							CHANNELS 3 Yrotation Xrotation Zrotation
							End Site
							{
								OFFSET -0.000000 0.020947 14.853096
							}
						}
					}
					JOINT RightCollar
					{
						OFFSET 2.894404 0.000001 6.791374
						CHANNELS 3 Yrotation Xrotation Zrotation
						JOINT RightShoulder
						{
							OFFSET 13.574684 0.000001 0.000000
							CHANNELS 3 Yrotation Xrotation Zrotation
							JOINT RightElbow
							{
								OFFSET 23.923903 0.000002 0.000000
								CHANNELS 3 Yrotation Xrotation Zrotation
								JOINT RightWrist
								{
									OFFSET 19.846718 0.012767 0.000000
									CHANNELS 3 Yrotation Xrotation Zrotation
									End Site
									{
										OFFSET 14.973145 0.000001 0.000000
									}
								}
							}
						}
					}
					JOINT LeftCollar
					{
						OFFSET -2.894404 0.000001 6.791374
						CHANNELS 3 Yrotation Xrotation Zrotation
						JOINT LeftShoulder
						{
							OFFSET -13.574684 -0.000001 0.000000
							CHANNELS 3 Yrotation Xrotation Zrotation
							JOINT LeftElbow
							{
								OFFSET -23.923903 -0.000002 0.000000
								CHANNELS 3 Yrotation Xrotation Zrotation
								JOINT LeftWrist
								{
									OFFSET -19.846718 0.012763 0.000000
									CHANNELS 3 Yrotation Xrotation Zrotation
									End Site
									{
										OFFSET -14.973145 -0.000001 0.000000
									}
								}
							}
						}
					}
				}
			}
		}
	}
	JOINT RightHip
	{
		OFFSET 9.469263 0.004643 0.045487
		CHANNELS 3 Yrotation Xrotation Zrotation
		JOINT RightKnee
		{
			OFFSET 0.000000 0.002661 -40.478676
			CHANNELS 3 Yrotation Xrotation Zrotation
			JOINT RightAnkle
			{
				OFFSET 0.000000 0.049106 -35.224068
				CHANNELS 3 Yrotation Xrotation Zrotation
				JOINT RightToe
				{
					OFFSET -0.000001 12.539529 -6.151390
					CHANNELS 3 Yrotation Xrotation Zrotation
					End Site
					{
						OFFSET -0.000001 5.044994 -1.291870
					}
				}
			}
		}
	}
	JOINT LeftHip
	{
		OFFSET -9.469263 0.004641 0.045487
		CHANNELS 3 Yrotation Xrotation Zrotation
		JOINT LeftKnee
		{
			OFFSET 0.000000 0.002661 -40.478676
			CHANNELS 3 Yrotation Xrotation Zrotation
			JOINT LeftAnkle
			{
				OFFSET 0.000000 0.049106 -35.224068
				CHANNELS 3 Yrotation Xrotation Zrotation
				JOINT LeftToe
				{
					OFFSET -0.000001 12.539529 -6.151390
					CHANNELS 3 Yrotation Xrotation Zrotation
					End Site
					{
						OFFSET -0.000001 5.044994 -1.291870
					}
				}
			}
		}
	}
}
MOTION
Frames: 11
Frame Time: 0.016667
30.417587 -0.555564 83.390251 -2.051150 0.669065 -96.857294 -1.318328 -2.539786 0.416493 -0.702981 -1.236552 -0.119262 -0.702981 -1.236552 -0.119263 -0.527456 -0.927278 -0.090866 3.928548 -16.398623 -8.524438 4.255742 5.714021 -14.425001 8.564465 5.325755 -0.898760 46.830444 -18.921072 -12.031144 22.490292 -38.090739 44.057155 -27.543942 39.525526 66.597951 -7.260231 4.855766 -3.266101 -43.448213 -7.180062 13.224861 -42.766266 -55.410876 -17.851717 16.775621 17.363140 -58.037681 -1.835837 13.581156 -15.204228 -1.663987 -1.674823 -21.702721 7.697545 -13.467482 14.998201 -0.830354 -0.601080 1.112944 -6.077614 -9.695327 -7.827198 -1.122003 -7.120044 8.284639 5.384520 2.751544 6.197632 -1.336632 12.086638 -0.549735 
30.068335 -0.312982 83.267616 -2.064949 0.641829 -96.871685 -1.297423 -2.579600 0.420767 -0.694320 -1.252715 -0.121749 -0.694320 -1.252714 -0.121749 -0.520969 -0.939400 -0.092732 3.955858 -16.402803 -8.550184 4.297604 5.707505 -14.462868 8.563981 5.317826 -0.894049 46.805575 -18.854874 -12.024947 22.453077 -38.110963 44.131621 -27.530112 39.514687 66.590731 -7.256278 4.830607 -3.291196 -43.446106 -7.214668 13.193122 -42.746773 -55.398753 -17.869887 16.809454 17.385879 -58.047578 -1.958275 13.882319 -15.371262 -1.708694 -1.721929 -21.824252 8.029728 -13.786139 14.916167 -0.842627 -0.691410 1.135745 -6.186528 -9.699934 -7.616043 -1.134986 -6.775735 8.028551 5.493254 3.347753 6.384462 -1.147736 11.147974 -0.523784 
29.715368 -0.090101 83.142387 -2.089552 0.595600 -96.889054 -1.256645 -2.622162 0.434242 -0.681988 -1.275754 -0.124608 -0.681988 -1.275754 -0.124609 -0.511730 -0.956678 -0.094877 3.967631 -16.391429 -8.574760 4.309801 5.728505 -14.504638 8.561689 5.307613 -0.894305 46.768764 -18.819534 -11.983155 22.402440 -38.111428 44.217453 -27.520212 39.519485 66.587904 -7.242116 4.789581 -3.321190 -43.466562 -7.264477 13.140048 -42.681237 -55.371172 -17.936360 16.853068 17.404714 -58.037429 -2.063208 14.156616 -15.511165 -1.757092 -1.767206 -21.898609 8.357585 -14.147676 15.067834 -0.826560 -0.752686 1.187751 -6.273027 -9.695083 -7.387230 -1.128886 -6.478128 7.751512 5.544223 3.959495 6.566406 -0.926839 10.218421 -0.500808 
29.364948 0.134466 83.013664 -2.121862 0.558250 -96.902892 -1.219627 -2.665991 0.446797 -0.667785 -1.300786 -0.128727 -0.667785 -1.300785 -0.128727 -0.501091 -0.975450 -0.097961 3.967881 -16.374176 -8.594969 4.301688 5.759588 -14.542648 8.564146 5.313158 -0.894868 46.709594 -18.818529 -11.925639 22.349769 -38.101473 44.304722 -27.513330 39.529399 66.594624 -7.225204 4.753383 -3.355536 -43.509879 -7.315158 13.096838 -42.571012 -55.334153 -18.040871 16.892571 17.409777 -58.005716 -2.161362 14.455214 -15.580059 -1.805509 -1.858597 -22.010739 8.669642 -14.449410 15.090690 -0.797202 -0.815806 1.237390 -6.361987 -9.685826 -7.154077 -1.123744 -6.203019 7.534511 5.536366 4.577138 6.614926 -0.649969 9.307033 -0.477919 
28.996374 0.347921 82.882767 -2.125705 0.527271 -96.929120 -1.179927 -2.679580 0.472122 -0.653202 -1.321010 -0.134474 -0.653202 -1.321010 -0.134474 -0.490170 -0.990616 -0.102263 3.961985 -16.358720 -8.608728 4.284606 5.787090 -14.570837 8.565419 5.311296 -0.906785 46.636433 -18.841772 -11.841239 22.299864 -38.090100 44.380971 -27.503000 39.550586 66.612929 -7.217225 4.724337 -3.375060 -43.541684 -7.343128 13.054213 -42.507860 -55.314041 -18.096670 16.931535 17.407955 -57.974072 -2.274047 14.824958 -15.578688 -1.839995 -2.023400 -22.155725 8.961155 -14.709881 15.075006 -0.743797 -0.868694 1.303017 -6.448050 -9.619587 -6.908760 -1.129927 -5.955344 7.355102 5.485240 5.199243 6.705967 -0.347496 8.401142 -0.454773 
28.613300 0.572414 82.751602 -2.119795 0.529863 -96.941899 -1.164737 -2.675897 0.492042 -0.643084 -1.335269 -0.144697 -0.643084 -1.335269 -0.144697 -0.482608 -1.001300 -0.109924 3.955500 -16.348826 -8.617200 4.268768 5.804460 -14.589241 8.573516 5.306526 -0.912729 46.569309 -18.869991 -11.763616 22.246623 -38.074903 44.442306 -27.493149 39.575578 66.638461 -7.223374 4.730593 -3.382582 -43.546062 -7.358745 13.037543 -42.517784 -55.325021 -18.081022 16.960779 17.421659 -57.972426 -2.447416 15.237568 -15.598231 -1.850384 -2.237074 -22.248984 9.253588 -14.955374 15.062980 -0.690128 -0.907637 1.346977 -6.556802 -9.503584 -6.715086 -1.152232 -5.748739 7.129578 5.443475 5.787868 6.829389 -0.041717 7.526863 -0.437812 
28.225191 0.798223 82.623940 -2.133891 0.551219 -96.912687 -1.160821 -2.681271 0.486235 -0.639466 -1.345891 -0.159107 -0.639466 -1.345891 -0.159106 -0.479928 -1.009254 -0.120732 3.950010 -16.338926 -8.623477 4.255540 5.822028 -14.603207 8.589547 5.318515 -0.914824 46.519920 -18.886340 -11.720653 22.183980 -38.074558 44.478397 -27.484200 39.602902 66.668602 -7.243332 4.750069 -3.384320 -43.527498 -7.372521 13.041510 -42.555415 -55.354039 -18.039655 16.977810 17.461087 -58.017478 -2.651488 15.634281 -15.714769 -1.863080 -2.453269 -22.279884 9.531299 -15.179337 14.982285 -0.628464 -0.944241 1.396081 -6.699838 -9.368866 -6.667746 -1.171768 -5.592989 6.947767 5.431261 6.333028 7.042890 0.235729 6.697607 -0.425863 
27.841187 1.024439 82.502304 -2.172815 0.587189 -96.846441 -1.160037 -2.702272 0.454703 -0.641472 -1.352859 -0.174914 -0.641472 -1.352859 -0.174914 -0.481469 -1.014462 -0.132599 3.943384 -16.326551 -8.629160 4.240202 5.844117 -14.616566 8.598867 5.318421 -0.914058 46.498456 -18.860570 -11.705211 22.101594 -38.086996 44.498327 -27.470300 39.617051 66.696729 -7.269934 4.747548 -3.373120 -43.512448 -7.389599 13.049804 -42.584590 -55.381312 -18.014265 16.995073 17.525714 -58.101154 -2.871363 15.981516 -15.911779 -1.886103 -2.628335 -22.322286 9.780900 -15.418303 14.927517 -0.563027 -0.977309 1.461311 -6.843167 -9.232911 -6.760499 -1.217540 -5.478023 6.791607 5.484058 6.826409 7.273813 0.462097 5.921867 -0.425419 
27.462027 1.249380 82.386192 -2.220582 0.643459 -96.764738 -1.168321 -2.734206 0.423249 -0.648979 -1.359137 -0.188491 -0.648978 -1.359137 -0.188491 -0.487130 -1.019155 -0.142805 3.939204 -16.311426 -8.640064 4.227318 5.871255 -14.638841 8.596715 5.296869 -0.916480 46.500628 -18.779754 -11.705238 22.021601 -38.107623 44.512175 -27.453624 39.601853 66.709372 -7.291515 4.729181 -3.355580 -43.507246 -7.416972 13.056233 -42.556341 -55.392691 -18.064177 17.012408 17.579997 -58.176191 -3.116747 16.306913 -16.137456 -1.905557 -2.788957 -22.415417 10.007776 -15.647386 14.910557 -0.495279 -1.024233 1.550373 -7.018050 -9.074506 -6.899552 -1.261613 -5.418928 6.628301 5.596244 7.307939 7.532796 0.638404 5.171675 -0.434002 
27.082092 1.481703 82.276077 -2.279555 0.731117 -96.651992 -1.200024 -2.790691 0.369145 -0.660120 -1.369195 -0.198352 -0.660120 -1.369196 -0.198353 -0.495511 -1.026684 -0.150236 3.932065 -16.279018 -8.652165 4.207025 5.930065 -14.665022 8.585465 5.307109 -0.931013 46.521743 -18.713757 -11.722298 21.946252 -38.127789 44.526936 -27.434104 39.576302 66.715471 -7.305625 4.728859 -3.345222 -43.499931 -7.418849 13.069992 -42.527384 -55.409203 -18.124011 17.028032 17.615398 -58.235812 -3.406659 16.618713 -16.398869 -1.915018 -2.936631 -22.543360 10.231668 -15.888441 14.847484 -0.450216 -1.054664 1.617847 -7.227795 -8.890692 -7.073902 -1.297973 -5.404281 6.508517 5.743693 7.684902 7.685529 0.563912 3.334127 -0.457964 
26.697151 1.703356 82.173965 -2.351878 0.840778 -96.510908 -1.247661 -2.870848 0.296005 -0.673595 -1.380427 -0.206725 -0.673595 -1.380427 -0.206726 -0.505639 -1.035095 -0.156559 3.916467 -16.232493 -8.663252 4.170172 6.014303 -14.692879 8.578826 5.348334 -0.930789 46.545724 -18.670493 -11.765663 21.897055 -38.150647 44.529323 -27.426734 39.550057 66.718415 -7.316593 4.775844 -3.319377 -43.480540 -7.416852 13.099292 -42.519994 -55.448487 -18.166872 17.039782 17.616217 -58.270605 -3.732512 16.900304 -16.695928 -1.912805 -3.063094 -22.701233 10.464048 -16.149076 14.834088 -0.427118 -1.077609 1.684006 -7.468594 -8.673546 -7.279233 -1.329727 -5.457936 6.505005 5.894055 8.015182 7.818208 0.477009 1.915187 -0.470473 
